<svg width="14" height="15" viewBox="0 0 14 15" fill="none" xmlns="http://www.w3.org/2000/svg">
<path d="M7.00001 11.5833C7.11538 11.5833 7.22816 11.5491 7.32409 11.485C7.42002 11.4209 7.49478 11.3298 7.53894 11.2232C7.58309 11.1166 7.59464 10.9994 7.57213 10.8862C7.54962 10.773 7.49406 10.6691 7.41248 10.5875C7.3309 10.5059 7.22696 10.4504 7.11381 10.4279C7.00065 10.4054 6.88336 10.4169 6.77677 10.4611C6.67018 10.5052 6.57908 10.58 6.51498 10.6759C6.45088 10.7718 6.41667 10.8846 6.41667 11C6.41667 11.1547 6.47813 11.3031 6.58753 11.4125C6.69692 11.5219 6.8453 11.5833 7.00001 11.5833ZM9.91667 11.5833C10.032 11.5833 10.1448 11.5491 10.2408 11.485C10.3367 11.4209 10.4115 11.3298 10.4556 11.2232C10.4998 11.1166 10.5113 10.9994 10.4888 10.8862C10.4663 10.773 10.4107 10.6691 10.3292 10.5875C10.2476 10.5059 10.1436 10.4504 10.0305 10.4279C9.91732 10.4054 9.80003 10.4169 9.69344 10.4611C9.58685 10.5052 9.49575 10.58 9.43165 10.6759C9.36755 10.7718 9.33334 10.8846 9.33334 11C9.33334 11.1547 9.3948 11.3031 9.50419 11.4125C9.61359 11.5219 9.76196 11.5833 9.91667 11.5833ZM9.91667 9.25C10.032 9.25 10.1448 9.21579 10.2408 9.15169C10.3367 9.08759 10.4115 8.99649 10.4556 8.8899C10.4998 8.78331 10.5113 8.66602 10.4888 8.55286C10.4663 8.43971 10.4107 8.33577 10.3292 8.25419C10.2476 8.17261 10.1436 8.11705 10.0305 8.09454C9.91732 8.07203 9.80003 8.08358 9.69344 8.12774C9.58685 8.17189 9.49575 8.24665 9.43165 8.34258C9.36755 8.43851 9.33334 8.55129 9.33334 8.66667C9.33334 8.82137 9.3948 8.96975 9.50419 9.07914C9.61359 9.18854 9.76196 9.25 9.91667 9.25ZM7.00001 9.25C7.11538 9.25 7.22816 9.21579 7.32409 9.15169C7.42002 9.08759 7.49478 8.99649 7.53894 8.8899C7.58309 8.78331 7.59464 8.66602 7.57213 8.55286C7.54962 8.43971 7.49406 8.33577 7.41248 8.25419C7.3309 8.17261 7.22696 8.11705 7.11381 8.09454C7.00065 8.07203 6.88336 8.08358 6.77677 8.12774C6.67018 8.17189 6.57908 8.24665 6.51498 8.34258C6.45088 8.43851 6.41667 8.55129 6.41667 8.66667C6.41667 8.82137 6.47813 8.96975 6.58753 9.07914C6.69692 9.18854 6.8453 9.25 7.00001 9.25ZM11.0833 2.25H10.5V1.66667C10.5 1.51196 10.4385 1.36358 10.3292 1.25419C10.2198 1.14479 10.0714 1.08333 9.91667 1.08333C9.76196 1.08333 9.61359 1.14479 9.50419 1.25419C9.3948 1.36358 9.33334 1.51196 9.33334 1.66667V2.25H4.66667V1.66667C4.66667 1.51196 4.60521 1.36358 4.49582 1.25419C4.38642 1.14479 4.23805 1.08333 4.08334 1.08333C3.92863 1.08333 3.78026 1.14479 3.67086 1.25419C3.56146 1.36358 3.50001 1.51196 3.50001 1.66667V2.25H2.91667C2.45254 2.25 2.00742 2.43437 1.67923 2.76256C1.35105 3.09075 1.16667 3.53587 1.16667 4V12.1667C1.16667 12.6308 1.35105 13.0759 1.67923 13.4041C2.00742 13.7323 2.45254 13.9167 2.91667 13.9167H11.0833C11.5475 13.9167 11.9926 13.7323 12.3208 13.4041C12.649 13.0759 12.8333 12.6308 12.8333 12.1667V4C12.8333 3.53587 12.649 3.09075 12.3208 2.76256C11.9926 2.43437 11.5475 2.25 11.0833 2.25ZM11.6667 12.1667C11.6667 12.3214 11.6052 12.4697 11.4958 12.5791C11.3864 12.6885 11.238 12.75 11.0833 12.75H2.91667C2.76196 12.75 2.61359 12.6885 2.50419 12.5791C2.3948 12.4697 2.33334 12.3214 2.33334 12.1667V6.91667H11.6667V12.1667ZM11.6667 5.75H2.33334V4C2.33334 3.84529 2.3948 3.69692 2.50419 3.58752C2.61359 3.47812 2.76196 3.41667 2.91667 3.41667H3.50001V4C3.50001 4.15471 3.56146 4.30308 3.67086 4.41248C3.78026 4.52187 3.92863 4.58333 4.08334 4.58333C4.23805 4.58333 4.38642 4.52187 4.49582 4.41248C4.60521 4.30308 4.66667 4.15471 4.66667 4V3.41667H9.33334V4C9.33334 4.15471 9.3948 4.30308 9.50419 4.41248C9.61359 4.52187 9.76196 4.58333 9.91667 4.58333C10.0714 4.58333 10.2198 4.52187 10.3292 4.41248C10.4385 4.30308 10.5 4.15471 10.5 4V3.41667H11.0833C11.238 3.41667 11.3864 3.47812 11.4958 3.58752C11.6052 3.69692 11.6667 3.84529 11.6667 4V5.75ZM4.08334 9.25C4.19871 9.25 4.31149 9.21579 4.40742 9.15169C4.50335 9.08759 4.57812 8.99649 4.62227 8.8899C4.66642 8.78331 4.67797 8.66602 4.65546 8.55286C4.63296 8.43971 4.5774 8.33577 4.49582 8.25419C4.41424 8.17261 4.3103 8.11705 4.19714 8.09454C4.08399 8.07203 3.9667 8.08358 3.86011 8.12774C3.75352 8.17189 3.66241 8.24665 3.59831 8.34258C3.53422 8.43851 3.50001 8.55129 3.50001 8.66667C3.50001 8.82137 3.56146 8.96975 3.67086 9.07914C3.78026 9.18854 3.92863 9.25 4.08334 9.25ZM4.08334 11.5833C4.19871 11.5833 4.31149 11.5491 4.40742 11.485C4.50335 11.4209 4.57812 11.3298 4.62227 11.2232C4.66642 11.1166 4.67797 10.9994 4.65546 10.8862C4.63296 10.773 4.5774 10.6691 4.49582 10.5875C4.41424 10.5059 4.3103 10.4504 4.19714 10.4279C4.08399 10.4054 3.9667 10.4169 3.86011 10.4611C3.75352 10.5052 3.66241 10.58 3.59831 10.6759C3.53422 10.7718 3.50001 10.8846 3.50001 11C3.50001 11.1547 3.56146 11.3031 3.67086 11.4125C3.78026 11.5219 3.92863 11.5833 4.08334 11.5833Z" fill="#95A1B1"/>
</svg>
