<svg width="20" height="20" viewBox="0 0 20 20" fill="none" xmlns="http://www.w3.org/2000/svg">
<path d="M16.609 12.9798L15.166 12.15L15.8082 11.9769C15.9025 11.9549 15.9914 11.9142 16.0696 11.8571C16.1479 11.8 16.2138 11.7278 16.2635 11.6447C16.3133 11.5616 16.3458 11.4694 16.3591 11.3735C16.3724 11.2776 16.3663 11.18 16.3411 11.0865C16.3159 10.993 16.2722 10.9055 16.2125 10.8293C16.1528 10.753 16.0783 10.6896 15.9936 10.6427C15.9088 10.5959 15.8155 10.5666 15.7192 10.5565C15.6229 10.5465 15.5256 10.556 15.433 10.5843L13.3983 11.1327L11.443 9.99992L13.3983 8.86715L15.433 9.4155H15.6206C15.8119 9.44037 16.0053 9.38822 16.1582 9.2705C16.3111 9.15278 16.411 8.97914 16.4359 8.78779C16.4608 8.59643 16.4086 8.40303 16.2909 8.25013C16.1732 8.09723 15.9995 7.99736 15.8082 7.97248L15.166 7.83539L16.609 7.00566C16.6915 6.95828 16.7638 6.89513 16.8218 6.81982C16.8798 6.74451 16.9225 6.6585 16.9472 6.56671C16.972 6.47492 16.9785 6.37915 16.9663 6.28486C16.9541 6.19058 16.9234 6.09962 16.876 6.01719C16.8286 5.93476 16.7655 5.86246 16.6902 5.80443C16.6149 5.74641 16.5288 5.70378 16.4371 5.67899C16.3453 5.6542 16.2495 5.64773 16.1552 5.65996C16.0609 5.67218 15.97 5.70286 15.8875 5.75023L14.3291 6.65933L14.5455 5.85846C14.5739 5.76588 14.5834 5.66853 14.5733 5.57222C14.5633 5.47591 14.534 5.38261 14.4871 5.29786C14.4403 5.21312 14.3768 5.13868 14.3006 5.07897C14.2244 5.01926 14.1369 4.97551 14.0434 4.95032C13.9499 4.92513 13.8523 4.91901 13.7564 4.93234C13.6605 4.94567 13.5682 4.97817 13.4851 5.0279C13.4021 5.07763 13.3298 5.14358 13.2728 5.22181C13.2157 5.30005 13.175 5.38897 13.153 5.48327L12.5614 7.6478L10.7215 8.75171V6.49338L12.215 4.99986C12.3494 4.86468 12.4249 4.68181 12.4249 4.4912C12.4249 4.30058 12.3494 4.11772 12.215 3.98253C12.148 3.91491 12.0682 3.86123 11.9803 3.8246C11.8923 3.78797 11.798 3.76911 11.7028 3.76911C11.6075 3.76911 11.5132 3.78797 11.4253 3.8246C11.3374 3.86123 11.2576 3.91491 11.1905 3.98253L10.7215 4.45151V2.78483C10.7215 2.59347 10.6455 2.40995 10.5102 2.27464C10.3749 2.13933 10.1914 2.06332 10 2.06332C9.80866 2.06332 9.62514 2.13933 9.48983 2.27464C9.35452 2.40995 9.2785 2.59347 9.2785 2.78483V4.56695L8.69408 3.98253C8.62701 3.91491 8.54721 3.86123 8.45929 3.8246C8.37136 3.78797 8.27706 3.76911 8.18181 3.76911C8.08656 3.76911 7.99226 3.78797 7.90434 3.8246C7.81641 3.86123 7.73661 3.91491 7.66954 3.98253C7.53516 4.11772 7.45973 4.30058 7.45973 4.4912C7.45973 4.68181 7.53516 4.86468 7.66954 4.99986L9.2785 6.60883V8.77336L7.42423 7.67666L6.83259 5.51213C6.81062 5.41783 6.76989 5.32891 6.71283 5.25067C6.65577 5.17244 6.58354 5.10649 6.50046 5.05676C6.41737 5.00703 6.32512 4.97453 6.22921 4.9612C6.1333 4.94787 6.03569 4.95399 5.94219 4.97918C5.8487 5.00437 5.76123 5.04812 5.685 5.10783C5.60876 5.16754 5.54533 5.24198 5.49848 5.32672C5.45162 5.41147 5.42231 5.50477 5.41227 5.60108C5.40224 5.69739 5.41169 5.79474 5.44007 5.88732L5.67096 6.65933L4.1125 5.76466C4.03006 5.71729 3.93911 5.68661 3.84482 5.67439C3.75053 5.66216 3.65476 5.66863 3.56297 5.69342C3.47119 5.71821 3.38518 5.76084 3.30987 5.81886C3.23455 5.87689 3.1714 5.94919 3.12403 6.03162C3.07665 6.11405 3.04598 6.20501 3.03376 6.29929C3.02153 6.39358 3.028 6.48935 3.05279 6.58114C3.10285 6.76652 3.22451 6.92441 3.39099 7.02009L4.83401 7.83539L4.22794 8.02298C4.03658 8.04786 3.86295 8.14773 3.74523 8.30063C3.62751 8.45353 3.57535 8.64693 3.60023 8.83829C3.6251 9.02965 3.72498 9.20328 3.87787 9.321C4.03077 9.43872 4.22418 9.49088 4.41553 9.466H4.60312L6.63778 8.91766L8.557 9.99992L6.60171 11.1327L4.56705 10.5843C4.47158 10.5489 4.36969 10.5341 4.26807 10.5408C4.16646 10.5476 4.06742 10.5757 3.97748 10.6235C3.88754 10.6713 3.80873 10.7375 3.74623 10.8179C3.68373 10.8983 3.63896 10.9911 3.61487 11.09C3.59077 11.189 3.5879 11.2919 3.60643 11.392C3.62496 11.4922 3.66448 11.5872 3.72239 11.671C3.7803 11.7548 3.85529 11.8253 3.94242 11.8781C4.02955 11.9308 4.12686 11.9644 4.22794 11.9769L4.87008 12.15L3.42706 12.9798C3.26058 13.0754 3.13893 13.2333 3.08887 13.4187C3.0388 13.6041 3.06443 13.8017 3.1601 13.9682C3.25578 14.1347 3.41368 14.2564 3.59905 14.3064C3.78442 14.3565 3.98209 14.3309 4.14857 14.2352L5.67096 13.3405L5.4545 14.1414C5.4259 14.2337 5.41616 14.3309 5.42584 14.4271C5.43553 14.5233 5.46445 14.6166 5.51089 14.7014C5.55733 14.7862 5.62034 14.8608 5.69617 14.9208C5.77201 14.9807 5.85913 15.0248 5.95235 15.0505C6.01468 15.0576 6.07761 15.0576 6.13994 15.0505C6.30283 15.0561 6.46281 15.0063 6.59382 14.9094C6.72484 14.8124 6.81917 14.674 6.86145 14.5166L7.45309 12.352L9.2785 11.2481V13.5065L7.78498 15C7.6506 15.1352 7.57517 15.318 7.57517 15.5086C7.57517 15.6993 7.6506 15.8821 7.78498 16.0173C7.8518 16.0855 7.93149 16.1397 8.01942 16.1769C8.10736 16.214 8.20179 16.2334 8.29725 16.2338C8.39271 16.2334 8.48715 16.214 8.57508 16.1769C8.66301 16.1397 8.7427 16.0855 8.80952 16.0173L9.2785 15.5483V17.215C9.2785 17.4064 9.35452 17.5899 9.48983 17.7252C9.62514 17.8605 9.80866 17.9365 10 17.9365C10.1914 17.9365 10.3749 17.8605 10.5102 17.7252C10.6455 17.5899 10.7215 17.4064 10.7215 17.215V15.4329L11.3059 16.0173C11.373 16.0849 11.4528 16.1386 11.5407 16.1752C11.6287 16.2119 11.723 16.2307 11.8182 16.2307C11.9135 16.2307 12.0078 16.2119 12.0957 16.1752C12.1836 16.1386 12.2634 16.0849 12.3305 16.0173C12.4649 15.8821 12.5403 15.6993 12.5403 15.5086C12.5403 15.318 12.4649 15.1352 12.3305 15L10.7215 13.391V11.2265L12.5758 12.3015L13.1674 14.4661C13.2097 14.6235 13.3041 14.7619 13.4351 14.8589C13.5661 14.9558 13.7261 15.0056 13.889 15C13.9513 15.0071 14.0142 15.0071 14.0765 15C14.1687 14.9757 14.2551 14.9334 14.3308 14.8756C14.4065 14.8178 14.47 14.7455 14.5176 14.663C14.5652 14.5805 14.596 14.4894 14.6083 14.3949C14.6205 14.3004 14.6139 14.2044 14.5888 14.1125L14.3291 13.3405L15.8731 14.2352C15.9555 14.2826 16.0465 14.3132 16.1408 14.3255C16.2351 14.3377 16.3308 14.3312 16.4226 14.3064C16.5144 14.2816 16.6004 14.239 16.6757 14.181C16.751 14.1229 16.8142 14.0507 16.8616 13.9682C16.9089 13.8858 16.9396 13.7948 16.9518 13.7005C16.9641 13.6063 16.9576 13.5105 16.9328 13.4187C16.908 13.3269 16.8654 13.2409 16.8074 13.1656C16.7493 13.0903 16.677 13.0271 16.5946 12.9798H16.609Z" fill="white"/>
</svg>
